
<svg width="1280" height="720" viewBox="0 0 1280 720" xmlns="http://www.w3.org/2000/svg">
  <!-- Background -->
  <rect width="1280" height="720" fill="#F8FAFC"/>
  
  <!-- Header -->
  <rect width="1280" height="80" fill="white"/>
  <rect x="0" y="80" width="1280" height="2" fill="#E2E8F0"/>
  
  <!-- Logo -->
  <rect x="40" y="25" width="120" height="30" rx="4" fill="#2563EB"/>
  <text x="50" y="45" font-family="Arial, sans-serif" font-size="14" fill="white" font-weight="bold">Health Scribe AI</text>
  
  <!-- Navigation -->
  <rect x="200" y="30" width="60" height="20" rx="10" fill="#EEF2FF"/>
  <rect x="280" y="30" width="80" height="20" rx="10" fill="#DBEAFE"/>
  <rect x="380" y="30" width="70" height="20" rx="10" fill="#EEF2FF"/>
  
  <!-- Main Content Area -->
  <rect x="40" y="120" width="800" height="520" rx="8" fill="white"/>
  <rect x="40" y="120" width="800" height="2" fill="#E2E8F0"/>
  
  <!-- Tabs -->
  <rect x="60" y="140" width="100" height="30" rx="6" fill="#2563EB"/>
  <text x="110" y="160" text-anchor="middle" font-family="Arial, sans-serif" font-size="12" fill="white">Encounter</text>
  <rect x="180" y="140" width="80" height="30" rx="6" fill="#F1F5F9"/>
  <text x="220" y="160" text-anchor="middle" font-family="Arial, sans-serif" font-size="12" fill="#64748B">Analytics</text>
  
  <!-- Form Elements -->
  <rect x="80" y="200" width="300" height="40" rx="6" fill="#F8FAFC" stroke="#E2E8F0"/>
  <text x="90" y="215" font-family="Arial, sans-serif" font-size="10" fill="#64748B">Patient ID</text>
  <text x="90" y="230" font-family="Arial, sans-serif" font-size="12" fill="#1E293B">P-12345</text>
  
  <!-- Voice Recorder -->
  <circle cx="450" cy="280" r="30" fill="#EF4444"/>
  <circle cx="450" cy="280" r="15" fill="white"/>
  
  <!-- Results Panel -->
  <rect x="80" y="340" width="720" height="120" rx="6" fill="#F0F9FF" stroke="#0EA5E9"/>
  <text x="100" y="365" font-family="Arial, sans-serif" font-size="14" fill="#0369A1" font-weight="bold">AI Transcription Results</text>
  <text x="100" y="385" font-family="Arial, sans-serif" font-size="10" fill="#64748B">Patient presents with chest pain radiating to left arm...</text>
  
  <!-- Sidebar -->
  <rect x="880" y="120" width="320" height="520" rx="8" fill="white"/>
  
  <!-- AI Insights Panel -->
  <rect x="900" y="140" width="280" height="150" rx="6" fill="#FEF3C7"/>
  <text x="920" y="165" font-family="Arial, sans-serif" font-size="12" fill="#92400E" font-weight="bold">🧠 AI Clinical Insights</text>
  <rect x="920" y="180" width="100" height="15" rx="3" fill="#FCD34D"/>
  <rect x="920" y="200" width="150" height="15" rx="3" fill="#FCD34D"/>
  
  <!-- Performance Stats -->
  <rect x="900" y="310" width="280" height="100" rx="6" fill="#ECFDF5"/>
  <text x="920" y="335" font-family="Arial, sans-serif" font-size="12" fill="#065F46" font-weight="bold">⚡ Performance</text>
  <text x="920" y="355" font-family="Arial, sans-serif" font-size="10" fill="#047857">Processing Time: 1.2s</text>
  <text x="920" y="375" font-family="Arial, sans-serif" font-size="10" fill="#047857">Accuracy: 94%</text>
  <text x="920" y="395" font-family="Arial, sans-serif" font-size="10" fill="#047857">Time Saved: 7 min</text>
  
  <!-- Bottom Banner -->
  <rect x="0" y="660" width="1280" height="60" fill="#1E40AF"/>
  <text x="40" y="685" font-family="Arial, sans-serif" font-size="14" fill="white" font-weight="bold">Enterprise Ready</text>
  <text x="40" y="705" font-family="Arial, sans-serif" font-size="11" fill="#BFDBFE">HIPAA Compliant • Azure Integration • Production Scalable</text>
</svg>
